<svg width="120" height="43" viewBox="0 0 120 43" fill="none" xmlns="http://www.w3.org/2000/svg">
<path d="M47.5201 31.3919C47.9361 31.3919 48.2561 31.5839 48.4801 31.9679C48.7361 32.3519 48.8641 32.8799 48.8641 33.5519C48.8641 34.7999 48.5601 35.7919 47.9521 36.5279C44.7841 40.3999 41.4081 42.3359 37.8241 42.3359C34.7201 42.3359 32.2401 41.1359 30.3841 38.7359C28.5281 36.3359 27.6001 32.8959 27.6001 28.4159C27.6001 27.3279 27.6481 26.2399 27.7441 25.1519C25.6321 25.5359 23.3281 25.8239 20.8321 26.0159C19.1681 26.1439 18.0321 26.2239 17.4241 26.2559C16.7841 29.5199 15.8881 33.5199 14.7361 38.2559C14.0641 41.0399 12.7841 42.4319 10.8961 42.4319C8.84807 42.4319 7.82407 41.5039 7.82407 39.6479C7.82407 39.2319 7.90407 38.6559 8.06407 37.9199C9.15207 33.5359 10.0161 29.8239 10.6561 26.7839L8.35207 26.8799C7.29607 26.8799 6.52807 26.7039 6.04807 26.3519C5.56807 25.9679 5.32807 25.3599 5.32807 24.5279C5.32807 23.4719 5.63207 22.7039 6.24007 22.2239C6.84807 21.7119 7.85607 21.4239 9.26407 21.3599L11.8081 21.2639C12.6401 16.7519 13.0561 13.3119 13.0561 10.9439C13.0561 9.43995 12.8321 8.41595 12.3841 7.87194C11.9361 7.32795 11.3441 7.05595 10.6081 7.05595C8.36807 7.05595 5.84007 8.92795 3.02407 12.6719C2.60807 13.2159 2.14407 13.4879 1.63207 13.4879C1.18407 13.4879 0.800066 13.2799 0.480066 12.8639C0.160066 12.4479 6.63698e-05 11.9199 6.63698e-05 11.2799C6.63698e-05 10.2879 0.400066 9.23195 1.20007 8.11195C2.60807 6.15995 4.38407 4.55995 6.52807 3.31195C8.67207 2.03195 10.8481 1.39194 13.0561 1.39194C15.1361 1.39194 16.7361 2.11195 17.8561 3.55195C19.0081 4.95994 19.5841 7.16794 19.5841 10.1759C19.5841 12.8319 19.2001 16.4319 18.4321 20.9759L23.1361 20.7359C25.1521 20.6399 26.8801 20.4799 28.3201 20.2559C28.8961 16.7359 29.7761 13.4399 30.9601 10.3679C32.1441 7.29595 33.6161 4.79995 35.3761 2.87995C37.1361 0.959946 39.1041 -5.43594e-05 41.2801 -5.43594e-05C42.8801 -5.43594e-05 44.1441 0.639946 45.0721 1.91995C46.0001 3.16795 46.4641 4.81595 46.4641 6.86395C46.4641 14.7999 42.4161 20.3039 34.3201 23.3759C34.2241 24.6559 34.1761 25.9839 34.1761 27.3599C34.1761 30.7199 34.5921 33.1039 35.4241 34.5119C36.2561 35.9199 37.4241 36.6239 38.9281 36.6239C40.2401 36.6239 41.4401 36.2879 42.5281 35.6159C43.6161 34.9119 44.8481 33.7279 46.2241 32.0639C46.6081 31.6159 47.0401 31.3919 47.5201 31.3919ZM41.0401 4.17595C40.3361 4.17595 39.5841 4.81595 38.7841 6.09594C38.0161 7.37595 37.2801 9.11995 36.5761 11.3279C35.8721 13.5359 35.3121 15.9519 34.8961 18.5759C37.4561 17.5199 39.3441 16.0159 40.5601 14.0639C41.7761 12.1119 42.3841 9.59995 42.3841 6.52794C42.3841 5.79194 42.2561 5.21595 42.0001 4.79995C41.7441 4.38395 41.4241 4.17595 41.0401 4.17595ZM50.8823 42.3359C48.8983 42.3359 47.3143 41.6159 46.1303 40.1759C44.9463 38.7359 44.3543 36.8479 44.3543 34.5119C44.3543 31.9519 44.9463 29.5359 46.1303 27.2639C47.3143 24.9599 48.8823 23.1199 50.8343 21.7439C52.8183 20.3359 54.9143 19.6319 57.1223 19.6319C57.8263 19.6319 58.2903 19.7759 58.5143 20.0639C58.7703 20.3199 58.9783 20.7999 59.1383 21.5039C59.8103 21.3759 60.5143 21.3119 61.2503 21.3119C62.8183 21.3119 63.6023 21.8719 63.6023 22.9919C63.6023 23.6639 63.3623 25.2639 62.8823 27.7919C62.1463 31.4719 61.7783 34.0319 61.7783 35.4719C61.7783 35.9519 61.8903 36.3359 62.1143 36.6239C62.3703 36.9119 62.6903 37.0559 63.0743 37.0559C63.6823 37.0559 64.4183 36.6719 65.2823 35.9039C66.1463 35.1039 67.3143 33.8239 68.7863 32.0639C69.1703 31.6159 69.6023 31.3919 70.0823 31.3919C70.4983 31.3919 70.8183 31.5839 71.0423 31.9679C71.2983 32.3519 71.4263 32.8799 71.4263 33.5519C71.4263 34.8319 71.1223 35.8239 70.5143 36.5279C69.2023 38.1599 67.8103 39.5359 66.3383 40.6559C64.8663 41.7759 63.4423 42.3359 62.0663 42.3359C61.0103 42.3359 60.0343 41.9839 59.1383 41.2799C58.2743 40.5439 57.6183 39.5519 57.1703 38.3039C55.5063 40.9919 53.4103 42.3359 50.8823 42.3359ZM52.6103 37.4879C53.3143 37.4879 53.9863 37.0719 54.6263 36.2399C55.2663 35.4079 55.7303 34.3039 56.0183 32.9279L57.7943 24.0959C56.4503 24.1279 55.2023 24.6399 54.0503 25.6319C52.9303 26.5919 52.0343 27.8719 51.3623 29.4719C50.6903 31.0719 50.3543 32.7679 50.3543 34.5599C50.3543 35.5519 50.5463 36.2879 50.9303 36.7679C51.3463 37.2479 51.9063 37.4879 52.6103 37.4879ZM88.9332 31.3919C89.3492 31.3919 89.6692 31.5839 89.8932 31.9679C90.1492 32.3519 90.2772 32.8799 90.2772 33.5519C90.2772 34.8319 89.9732 35.8239 89.3652 36.5279C88.1812 37.9679 86.5012 39.2959 84.3252 40.5119C82.1812 41.7279 79.8772 42.3359 77.4132 42.3359C74.0532 42.3359 71.4452 41.4239 69.5892 39.5999C67.7332 37.7759 66.8052 35.2799 66.8052 32.1119C66.8052 29.9039 67.2692 27.8559 68.1972 25.9679C69.1252 24.0479 70.4052 22.5279 72.0372 21.4079C73.7012 20.2879 75.5732 19.7279 77.6532 19.7279C79.5092 19.7279 80.9972 20.2879 82.1172 21.4079C83.2372 22.4959 83.7972 23.9839 83.7972 25.8719C83.7972 28.0799 82.9972 29.9839 81.3972 31.5839C79.8292 33.1519 77.1572 34.3999 73.3812 35.3279C74.1812 36.7999 75.7012 37.5359 77.9412 37.5359C79.3812 37.5359 81.0132 37.0399 82.8372 36.0479C84.6932 35.0239 86.2932 33.6959 87.6372 32.0639C88.0212 31.6159 88.4532 31.3919 88.9332 31.3919ZM76.8372 24.4319C75.6532 24.4319 74.6452 25.1199 73.8132 26.4959C73.0132 27.8719 72.6132 29.5359 72.6132 31.4879V31.5839C74.5012 31.1359 75.9892 30.4639 77.0772 29.5679C78.1652 28.6719 78.7092 27.6319 78.7092 26.4479C78.7092 25.8399 78.5332 25.3599 78.1812 25.0079C77.8612 24.6239 77.4132 24.4319 76.8372 24.4319ZM89.7769 42.3359C88.5609 42.3359 87.6969 41.6959 87.1849 40.4159C86.7049 39.1359 86.4649 37.0879 86.4649 34.2719C86.4649 30.1119 87.0569 26.1599 88.2409 22.4159C88.5289 21.4879 88.9929 20.8159 89.6329 20.3999C90.3049 19.9519 91.2329 19.7279 92.4169 19.7279C93.0569 19.7279 93.5049 19.8079 93.7609 19.9679C94.0169 20.1279 94.1449 20.4319 94.1449 20.8799C94.1449 21.3919 93.9049 22.5439 93.4249 24.3359C93.1049 25.6159 92.8489 26.7359 92.6569 27.6959C92.4649 28.6559 92.3049 29.8399 92.1769 31.2479C93.2329 28.4959 94.4169 26.2559 95.7289 24.5279C97.0409 22.7999 98.3209 21.5679 99.5689 20.8319C100.849 20.0959 102.017 19.7279 103.073 19.7279C105.153 19.7279 106.193 20.7679 106.193 22.8479C106.193 23.2639 106.049 24.2719 105.761 25.8719C105.505 27.1519 105.377 27.9519 105.377 28.2719C105.377 29.3919 105.777 29.9519 106.577 29.9519C107.473 29.9519 108.625 29.2479 110.033 27.8399C110.449 27.4239 110.881 27.2159 111.329 27.2159C111.745 27.2159 112.065 27.4079 112.289 27.7919C112.545 28.1439 112.673 28.6239 112.673 29.2319C112.673 30.4159 112.353 31.3439 111.713 32.0159C110.817 32.9439 109.761 33.7439 108.545 34.4159C107.361 35.0559 106.097 35.3759 104.753 35.3759C103.057 35.3759 101.761 34.9439 100.865 34.0799C100.001 33.2159 99.5689 32.0479 99.5689 30.5759C99.5689 30.0959 99.6169 29.6159 99.7129 29.1359C99.7769 28.4959 99.8089 28.0639 99.8089 27.8399C99.8089 27.3279 99.6329 27.0719 99.2809 27.0719C98.8009 27.0719 98.1609 27.6159 97.3609 28.7039C96.5929 29.7599 95.8249 31.1679 95.0569 32.9279C94.2889 34.6879 93.6649 36.5439 93.1849 38.4959C92.8329 39.9999 92.4169 41.0239 91.9369 41.5679C91.4889 42.0799 90.7689 42.3359 89.7769 42.3359ZM114.837 16.5599C113.493 16.5599 112.485 16.2559 111.813 15.6479C111.141 15.0079 110.805 14.1279 110.805 13.0079C110.805 11.8879 111.237 10.9599 112.101 10.2239C112.997 9.45595 114.101 9.07195 115.413 9.07195C116.597 9.07195 117.557 9.35995 118.293 9.93595C119.029 10.5119 119.397 11.3279 119.397 12.3839C119.397 13.6639 118.981 14.6879 118.149 15.4559C117.317 16.1919 116.213 16.5599 114.837 16.5599ZM110.229 42.3359C109.205 42.3359 108.501 42.1279 108.117 41.7119C107.733 41.2959 107.541 40.6399 107.541 39.7439C107.541 39.4879 107.573 39.0399 107.637 38.3999C108.149 32.5439 108.997 27.2159 110.181 22.4159C110.437 21.4239 110.853 20.7359 111.429 20.3519C112.037 19.9359 112.997 19.7279 114.309 19.7279C115.685 19.7279 116.373 20.2879 116.373 21.4079C116.373 21.5679 116.341 21.8719 116.277 22.3199C114.837 29.1679 113.973 34.9119 113.685 39.5519C113.621 40.5759 113.317 41.2959 112.773 41.7119C112.229 42.1279 111.381 42.3359 110.229 42.3359Z" fill="#FAFAFA"/>
</svg>
